<?xml version="1.0" standalone="no"?>
<!DOCTYPE svg PUBLIC "-//W3C//DTD SVG 20010904//EN"
 "http://www.w3.org/TR/2001/REC-SVG-20010904/DTD/svg10.dtd">
<svg version="1.0" xmlns="http://www.w3.org/2000/svg"
 width="2560.000000pt" height="2560.000000pt" viewBox="0 0 1280.000000 1280.000000"
 preserveAspectRatio="xMidYMid meet">

<g transform="translate(0.000000,1280.000000) scale(0.100000,-0.100000)"
fill="#0000FF" stroke="none">
<path d="M6058 10115 c-400 -36 -648 -85 -1001 -197 -595 -188 -1168 -518
-1622 -932 -347 -317 -612 -642 -845 -1036 -289 -489 -494 -1067 -566 -1595
-8 -60 -19 -141 -25 -180 -16 -118 -22 -556 -10 -740 41 -622 192 -1179 465
-1720 221 -436 460 -767 801 -1111 195 -196 290 -281 465 -415 428 -330 965
-599 1475 -739 44 -12 100 -28 125 -35 94 -28 359 -77 550 -102 110 -15 208
-18 530 -18 353 0 412 2 556 22 871 120 1611 445 2289 1004 132 108 458 436
566 569 408 499 693 1051 858 1659 129 474 173 930 141 1446 -9 145 -46 460
-55 475 -2 4 -9 38 -15 76 -43 277 -180 701 -332 1027 -516 1111 -1501 1978
-2663 2344 -351 111 -530 148 -905 189 -199 21 -598 26 -782 9z m966 -1850
c88 -27 153 -87 186 -173 20 -52 20 -66 20 -2507 l0 -2455 -827 2 -828 3 0
2460 0 2460 21 46 c40 86 97 136 189 165 64 20 1172 19 1239 -1z m1925 -766
c81 -17 150 -73 191 -153 l35 -69 2 -2021 c1 -1112 -1 -2045 -4 -2073 l-4 -53
-825 0 -824 0 -5 23 c-3 12 -4 945 -3 2072 3 2255 -2 2074 65 2168 36 52 101
94 164 106 66 13 1148 13 1208 0z m-3818 -802 c40 -20 75 -48 96 -75 67 -88
63 29 63 -1819 l0 -1673 -830 0 -830 0 2 1698 c3 1647 4 1698 22 1732 31 57
57 88 97 116 78 54 68 53 716 54 l601 0 63 -33z"/>
</g>
</svg>
